<svg width="26" height="24" viewBox="0 0 26 24" fill="none" xmlns="http://www.w3.org/2000/svg">
<path d="M7.91675 0H18.4167C22.4167 0 25.6667 3.12 25.6667 6.96V17.04C25.6667 18.8859 24.9029 20.6562 23.5433 21.9615C22.1836 23.2667 20.3396 24 18.4167 24H7.91675C3.91675 24 0.666748 20.88 0.666748 17.04V6.96C0.666748 5.11409 1.43059 3.34379 2.79022 2.03854C4.14986 0.733284 5.99393 0 7.91675 0ZM7.66675 2.4C6.47327 2.4 5.32868 2.85514 4.48477 3.6653C3.64085 4.47546 3.16675 5.57427 3.16675 6.72V17.28C3.16675 19.668 5.17925 21.6 7.66675 21.6H18.6667C19.8602 21.6 21.0048 21.1449 21.8487 20.3347C22.6926 19.5245 23.1667 18.4257 23.1667 17.28V6.72C23.1667 4.332 21.1542 2.4 18.6667 2.4H7.66675ZM19.7292 4.2C20.1436 4.2 20.5411 4.35804 20.8341 4.63934C21.1271 4.92064 21.2917 5.30218 21.2917 5.7C21.2917 6.09783 21.1271 6.47936 20.8341 6.76066C20.5411 7.04197 20.1436 7.2 19.7292 7.2C19.3148 7.2 18.9174 7.04197 18.6244 6.76066C18.3314 6.47936 18.1667 6.09783 18.1667 5.7C18.1667 5.30218 18.3314 4.92064 18.6244 4.63934C18.9174 4.35804 19.3148 4.2 19.7292 4.2ZM13.1667 6C14.8244 6 16.4141 6.63214 17.5862 7.75736C18.7583 8.88258 19.4167 10.4087 19.4167 12C19.4167 13.5913 18.7583 15.1174 17.5862 16.2426C16.4141 17.3679 14.8244 18 13.1667 18C11.5091 18 9.91943 17.3679 8.74733 16.2426C7.57523 15.1174 6.91675 13.5913 6.91675 12C6.91675 10.4087 7.57523 8.88258 8.74733 7.75736C9.91943 6.63214 11.5091 6 13.1667 6ZM13.1667 8.4C12.1722 8.4 11.2184 8.77928 10.5151 9.45442C9.81184 10.1295 9.41675 11.0452 9.41675 12C9.41675 12.9548 9.81184 13.8705 10.5151 14.5456C11.2184 15.2207 12.1722 15.6 13.1667 15.6C14.1613 15.6 15.1151 15.2207 15.8184 14.5456C16.5217 13.8705 16.9167 12.9548 16.9167 12C16.9167 11.0452 16.5217 10.1295 15.8184 9.45442C15.1151 8.77928 14.1613 8.4 13.1667 8.4Z" fill="#BBBBBB"/>
</svg>
