<svg width="13" height="12" viewBox="0 0 13 12" fill="none" xmlns="http://www.w3.org/2000/svg">
<path id="Vector" d="M10.7368 0.744141C11.0767 0.744141 11.4027 0.866887 11.643 1.08538C11.8833 1.30387 12.0184 1.6002 12.0184 1.90919V10.0645C12.0184 10.3735 11.8833 10.6699 11.643 10.8884C11.4027 11.1068 11.0767 11.2296 10.7368 11.2296H1.76593C1.42604 11.2296 1.10007 11.1068 0.859734 10.8884C0.619396 10.6699 0.484375 10.3735 0.484375 10.0645V1.90919C0.484375 1.6002 0.619396 1.30387 0.859734 1.08538C1.10007 0.866887 1.42604 0.744141 1.76593 0.744141H10.7368ZM10.4164 9.77328V6.6859C10.4164 6.18224 10.1963 5.69921 9.80459 5.34308C9.41284 4.98694 8.88151 4.78686 8.32749 4.78686C7.78283 4.78686 7.14846 5.08978 6.84089 5.54415V4.89754H5.05312V9.77328H6.84089V6.90143C6.84089 6.45289 7.23817 6.0859 7.73157 6.0859C7.96949 6.0859 8.19767 6.17182 8.3659 6.32476C8.53414 6.4777 8.62866 6.68514 8.62866 6.90143V9.77328H10.4164ZM2.97059 3.98298C3.2561 3.98298 3.52991 3.87987 3.7318 3.69634C3.93368 3.51281 4.0471 3.26389 4.0471 3.00434C4.0471 2.46259 3.56651 2.01987 2.97059 2.01987C2.68338 2.01987 2.40794 2.12359 2.20486 2.30821C2.00177 2.49284 1.88768 2.74324 1.88768 3.00434C1.88768 3.54609 2.37467 3.98298 2.97059 3.98298ZM3.86127 9.77328V4.89754H2.08632V9.77328H3.86127Z" fill="#BBBBBB"/>
</svg>
