<svg width="14" height="12" viewBox="0 0 14 12" fill="none" xmlns="http://www.w3.org/2000/svg">
<path id="Vector" d="M13.5961 1.97772C13.1136 2.1936 12.5936 2.33546 12.0548 2.40331C12.6062 2.07641 13.0322 1.5583 13.2327 0.935346C12.7127 1.24374 12.1363 1.45962 11.5286 1.58298C11.0336 1.05254 10.3382 0.744141 9.54875 0.744141C8.07642 0.744141 6.8735 1.92838 6.8735 3.39017C6.8735 3.59988 6.89856 3.80343 6.94242 3.99463C4.71201 3.88361 2.72594 2.82889 1.40398 1.23141C1.17217 1.61998 1.0406 2.07641 1.0406 2.55751C1.0406 3.47653 1.51049 4.29069 2.23725 4.75328C1.79242 4.75328 1.37892 4.62993 1.01554 4.44489V4.46339C1.01554 5.74632 1.94279 6.81953 3.17077 7.06008C2.77651 7.1663 2.36261 7.18108 1.96158 7.10326C2.13175 7.62906 2.46501 8.08914 2.91453 8.41883C3.36405 8.74852 3.90721 8.93124 4.46766 8.9413C3.51763 9.68172 2.34 10.0819 1.12831 10.0762C0.915292 10.0762 0.702275 10.0639 0.489258 10.0392C1.67965 10.7917 3.09558 11.2296 4.61176 11.2296C9.54875 11.2296 12.2616 7.19578 12.2616 3.69857C12.2616 3.58138 12.2616 3.47036 12.2553 3.35317C12.7816 2.98309 13.2327 2.51433 13.5961 1.97772Z" fill="#BBBBBB"/>
</svg>
